STARTFONT 2.1
FONT -sun-helmetcondensed-bold-r-semicondensed--14-140-75-75-p-66-adobe-fontspecific
SIZE 14 75 75
FONTBOUNDINGBOX 15 16 -2 -3

STARTPROPERTIES 28
FOUNDRY "sun"
FAMILY_NAME "helmetcondensed"
WEIGHT_NAME "bold"
SLANT "r"
SETWIDTH_NAME "semicondensed"
ADD_STYLE_NAME ""
PIXEL_SIZE 15
POINT_SIZE 140
RESOLUTION_X 75
RESOLUTION_Y 75
SPACING "p"
AVERAGE_WIDTH 66
CHARSET_REGISTRY "adobe"
CHARSET_ENCODING "fontspecific"
COPYRIGHT "© 1999 Sun Microsystems, Inc."
RAW_PIXELSIZE 1000
RAW_POINTSIZE 964
RAW_ASCENT 900
RAW_DESCENT 196
RAW_AVERAGE_WIDTH 4548
FACE_NAME "HelmetCondensedBoldnsedB5"
_XMBDFED_INFO "Edited with xmbdfed 2.4."
WEIGHT 10
X_HEIGHT -1
QUAD_WIDTH 8
DEFAULT_CHAR 4
FONT_DESCENT 3
FONT_ASCENT 13
ENDPROPERTIES

CHARS 210

STARTCHAR char32
ENCODING 32
SWIDTH 24 0
DWIDTH 4 0
BBX 0 0 0 0
BITMAP
ENDCHAR

STARTCHAR char33
ENCODING 33
SWIDTH 18 0
DWIDTH 3 0
BBX 2 10 1 0
BITMAP
C0
C0
C0
C0
C0
C0
C0
C0
00
C0
ENDCHAR

STARTCHAR char34
ENCODING 34
SWIDTH 30 0
DWIDTH 5 0
BBX 5 3 0 7
BITMAP
D8
48
D8
ENDCHAR

STARTCHAR char35
ENCODING 35
SWIDTH 49 0
DWIDTH 8 0
BBX 7 11 0 0
BITMAP
14
24
24
FE
24
24
28
FE
48
48
48
ENDCHAR

STARTCHAR char36
ENCODING 36
SWIDTH 43 0
DWIDTH 7 0
BBX 6 12 0 -1
BITMAP
30
78
DC
B0
F0
78
18
1C
DC
9C
78
10
ENDCHAR

STARTCHAR char37
ENCODING 37
SWIDTH 5 0
DWIDTH 11 0
BBX 12 10 -1 0
BITMAP
7080
D880
D900
DAE0
DAB0
5DB0
35B0
09B0
09B0
10E0
ENDCHAR

STARTCHAR char38
ENCODING 38
SWIDTH 49 0
DWIDTH 8 0
BBX 7 10 0 0
BITMAP
38
6C
6C
38
30
56
8E
CE
EE
7E
ENDCHAR

STARTCHAR char39
ENCODING 39
SWIDTH 12 0
DWIDTH 2 0
BBX 2 3 0 7
BITMAP
C0
C0
C0
ENDCHAR

STARTCHAR char40
ENCODING 40
SWIDTH 24 0
DWIDTH 4 0
BBX 4 13 0 -2
BITMAP
10
20
60
C0
C0
C0
C0
C0
C0
40
60
20
20
ENDCHAR

STARTCHAR char41
ENCODING 41
SWIDTH 24 0
DWIDTH 4 0
BBX 3 13 0 -2
BITMAP
80
C0
40
60
60
60
60
60
60
40
40
40
80
ENDCHAR

STARTCHAR char42
ENCODING 42
SWIDTH 30 0
DWIDTH 5 0
BBX 4 4 0 6
BITMAP
40
F0
50
50
ENDCHAR

STARTCHAR char43
ENCODING 43
SWIDTH 43 0
DWIDTH 7 0
BBX 7 6 0 1
BITMAP
30
30
FE
30
30
30
ENDCHAR

STARTCHAR char44
ENCODING 44
SWIDTH 18 0
DWIDTH 3 0
BBX 2 3 0 -2
BITMAP
C0
40
40
ENDCHAR

STARTCHAR char45
ENCODING 45
SWIDTH 30 0
DWIDTH 5 0
BBX 3 1 0 4
BITMAP
E0
ENDCHAR

STARTCHAR char46
ENCODING 46
SWIDTH 18 0
DWIDTH 3 0
BBX 2 1 0 0
BITMAP
C0
ENDCHAR

STARTCHAR char47
ENCODING 47
SWIDTH 24 0
DWIDTH 4 0
BBX 4 10 0 0
BITMAP
10
20
20
20
20
40
40
40
80
80
ENDCHAR

STARTCHAR char48
ENCODING 48
SWIDTH 43 0
DWIDTH 7 0
BBX 6 10 0 0
BITMAP
78
CC
CC
CC
CC
C4
C4
C4
48
78
ENDCHAR

STARTCHAR char49
ENCODING 49
SWIDTH 43 0
DWIDTH 7 0
BBX 4 10 1 0
BITMAP
30
70
F0
30
30
30
30
30
30
30
ENDCHAR

STARTCHAR char50
ENCODING 50
SWIDTH 43 0
DWIDTH 7 0
BBX 6 10 0 0
BITMAP
78
4C
CC
0C
08
18
20
40
40
FC
ENDCHAR

STARTCHAR char51
ENCODING 51
SWIDTH 43 0
DWIDTH 7 0
BBX 6 10 0 0
BITMAP
78
CC
8C
08
30
0C
0C
CC
CC
78
ENDCHAR

STARTCHAR char52
ENCODING 52
SWIDTH 43 0
DWIDTH 7 0
BBX 6 10 0 0
BITMAP
18
38
38
38
58
58
FC
08
08
08
ENDCHAR

STARTCHAR char53
ENCODING 53
SWIDTH 43 0
DWIDTH 7 0
BBX 6 10 0 0
BITMAP
7C
40
40
78
48
0C
0C
8C
CC
78
ENDCHAR

STARTCHAR char54
ENCODING 54
SWIDTH 43 0
DWIDTH 7 0
BBX 6 10 0 0
BITMAP
78
4C
C0
B8
C8
CC
CC
CC
CC
78
ENDCHAR

STARTCHAR char55
ENCODING 55
SWIDTH 43 0
DWIDTH 7 0
BBX 6 10 0 0
BITMAP
FC
0C
08
10
10
30
20
20
60
60
ENDCHAR

STARTCHAR char56
ENCODING 56
SWIDTH 43 0
DWIDTH 7 0
BBX 6 10 0 0
BITMAP
78
CC
CC
C8
30
48
CC
CC
CC
78
ENDCHAR

STARTCHAR char57
ENCODING 57
SWIDTH 43 0
DWIDTH 7 0
BBX 6 10 0 0
BITMAP
78
CC
CC
CC
CC
4C
34
04
C8
78
ENDCHAR

STARTCHAR char58
ENCODING 58
SWIDTH 18 0
DWIDTH 3 0
BBX 2 7 1 0
BITMAP
C0
00
00
00
00
00
C0
ENDCHAR

STARTCHAR char59
ENCODING 59
SWIDTH 18 0
DWIDTH 3 0
BBX 2 9 1 -2
BITMAP
C0
00
00
00
00
00
C0
40
80
ENDCHAR

STARTCHAR char60
ENCODING 60
SWIDTH 55 0
DWIDTH 9 0
BBX 8 7 0 0
BITMAP
07
18
60
C0
30
0C
03
ENDCHAR

STARTCHAR char61
ENCODING 61
SWIDTH 43 0
DWIDTH 7 0
BBX 7 4 0 2
BITMAP
FE
00
00
FE
ENDCHAR

STARTCHAR char62
ENCODING 62
SWIDTH 55 0
DWIDTH 9 0
BBX 8 7 0 0
BITMAP
C0
38
06
03
0C
30
C0
ENDCHAR

STARTCHAR char63
ENCODING 63
SWIDTH 43 0
DWIDTH 7 0
BBX 5 10 1 0
BITMAP
70
98
98
18
30
60
60
00
00
60
ENDCHAR

STARTCHAR char64
ENCODING 64
SWIDTH 36 0
DWIDTH 16 0
BBX 11 11 2 0
BITMAP
0F00
3180
6040
4FE0
D160
F160
F340
F240
7F80
30C0
1F00
ENDCHAR

STARTCHAR char65
ENCODING 65
SWIDTH 49 0
DWIDTH 8 0
BBX 7 10 0 0
BITMAP
30
28
28
28
4C
44
7C
C4
82
82
ENDCHAR

STARTCHAR char66
ENCODING 66
SWIDTH 43 0
DWIDTH 7 0
BBX 7 10 0 0
BITMAP
FC
C6
C6
C4
F8
C6
C6
C6
C6
FC
ENDCHAR

STARTCHAR char67
ENCODING 67
SWIDTH 43 0
DWIDTH 7 0
BBX 7 10 0 0
BITMAP
38
44
C4
C0
C0
C0
C6
C4
44
78
ENDCHAR

STARTCHAR char68
ENCODING 68
SWIDTH 49 0
DWIDTH 8 0
BBX 7 10 0 0
BITMAP
FC
C6
C6
C6
C6
C6
C6
C6
C4
F8
ENDCHAR

STARTCHAR char69
ENCODING 69
SWIDTH 43 0
DWIDTH 7 0
BBX 6 10 0 0
BITMAP
FC
C0
C0
C0
FC
C0
C0
C0
C0
FC
ENDCHAR

STARTCHAR char70
ENCODING 70
SWIDTH 43 0
DWIDTH 7 0
BBX 6 10 0 0
BITMAP
FC
C0
C0
C0
FC
C0
C0
C0
C0
C0
ENDCHAR

STARTCHAR char71
ENCODING 71
SWIDTH 49 0
DWIDTH 8 0
BBX 7 10 0 0
BITMAP
7C
C6
C6
C0
C0
DE
C6
C6
46
7E
ENDCHAR

STARTCHAR char72
ENCODING 72
SWIDTH 49 0
DWIDTH 8 0
BBX 7 10 0 0
BITMAP
C6
C6
C6
C6
FE
C6
C6
C6
C6
C6
ENDCHAR

STARTCHAR char73
ENCODING 73
SWIDTH 18 0
DWIDTH 3 0
BBX 2 10 0 0
BITMAP
C0
C0
C0
C0
C0
C0
C0
C0
C0
C0
ENDCHAR

STARTCHAR char74
ENCODING 74
SWIDTH 36 0
DWIDTH 6 0
BBX 6 10 -1 0
BITMAP
08
0C
0C
0C
0C
0C
0C
CC
CC
78
ENDCHAR

STARTCHAR char75
ENCODING 75
SWIDTH 43 0
DWIDTH 7 0
BBX 7 10 0 0
BITMAP
C6
CC
C8
D0
F0
F0
C8
CC
C4
C6
ENDCHAR

STARTCHAR char76
ENCODING 76
SWIDTH 43 0
DWIDTH 7 0
BBX 6 10 0 0
BITMAP
C0
C0
C0
C0
C0
C0
C0
C0
C0
FC
ENDCHAR

STARTCHAR char77
ENCODING 77
SWIDTH 61 0
DWIDTH 10 0
BBX 9 10 0 0
BITMAP
C180
E380
A280
A280
9680
9580
9580
D580
C980
C880
ENDCHAR

STARTCHAR char78
ENCODING 78
SWIDTH 49 0
DWIDTH 8 0
BBX 7 10 0 0
BITMAP
C6
E6
E6
D6
D6
D6
CE
CE
CE
C6
ENDCHAR

STARTCHAR char79
ENCODING 79
SWIDTH 49 0
DWIDTH 8 0
BBX 7 10 0 0
BITMAP
7C
C6
C6
C6
C6
C6
C6
C6
44
7C
ENDCHAR

STARTCHAR char80
ENCODING 80
SWIDTH 43 0
DWIDTH 7 0
BBX 7 10 0 0
BITMAP
FC
C6
C6
C6
CC
F0
C0
C0
C0
C0
ENDCHAR

STARTCHAR char81
ENCODING 81
SWIDTH 49 0
DWIDTH 8 0
BBX 7 10 0 0
BITMAP
7C
C6
C6
C6
C6
C6
C6
CE
4C
7A
ENDCHAR

STARTCHAR char82
ENCODING 82
SWIDTH 43 0
DWIDTH 7 0
BBX 7 10 0 0
BITMAP
FC
C6
C6
C6
F8
CE
C6
C6
C6
C6
ENDCHAR

STARTCHAR char83
ENCODING 83
SWIDTH 43 0
DWIDTH 7 0
BBX 6 10 0 0
BITMAP
78
CC
C0
C0
70
0C
0C
CC
CC
78
ENDCHAR

STARTCHAR char84
ENCODING 84
SWIDTH 43 0
DWIDTH 7 0
BBX 6 10 0 0
BITMAP
FC
30
30
30
30
30
30
30
30
30
ENDCHAR

STARTCHAR char85
ENCODING 85
SWIDTH 43 0
DWIDTH 7 0
BBX 7 10 0 0
BITMAP
C6
C6
C6
C6
C6
C6
C6
C6
C6
7C
ENDCHAR

STARTCHAR char86
ENCODING 86
SWIDTH 43 0
DWIDTH 7 0
BBX 7 10 0 0
BITMAP
C2
86
C4
44
4C
68
68
28
30
30
ENDCHAR

STARTCHAR char87
ENCODING 87
SWIDTH 5 0
DWIDTH 11 0
BBX 11 10 -1 0
BITMAP
4620
4620
4660
4A40
6B40
2940
2940
29C0
3180
1180
ENDCHAR

STARTCHAR char88
ENCODING 88
SWIDTH 43 0
DWIDTH 7 0
BBX 7 10 0 0
BITMAP
84
44
6C
38
30
30
68
48
C4
86
ENDCHAR

STARTCHAR char89
ENCODING 89
SWIDTH 43 0
DWIDTH 7 0
BBX 7 10 0 0
BITMAP
84
C4
4C
58
38
30
30
30
30
10
ENDCHAR

STARTCHAR char90
ENCODING 90
SWIDTH 43 0
DWIDTH 7 0
BBX 6 10 0 0
BITMAP
FC
0C
08
18
30
20
60
40
C0
FC
ENDCHAR

STARTCHAR char91
ENCODING 91
SWIDTH 24 0
DWIDTH 4 0
BBX 3 13 1 -2
BITMAP
E0
C0
C0
C0
C0
C0
C0
C0
C0
C0
C0
C0
E0
ENDCHAR

STARTCHAR char92
ENCODING 92
SWIDTH 24 0
DWIDTH 4 0
BBX 4 11 0 0
BITMAP
80
80
80
40
40
40
20
20
20
10
10
ENDCHAR

STARTCHAR char93
ENCODING 93
SWIDTH 24 0
DWIDTH 4 0
BBX 3 13 0 -2
BITMAP
E0
60
60
60
60
60
60
60
60
60
60
60
E0
ENDCHAR

STARTCHAR char94
ENCODING 94
SWIDTH 0 0
DWIDTH 0 0
BBX 4 2 -2 11
BITMAP
60
90
ENDCHAR

STARTCHAR char95
ENCODING 95
SWIDTH 55 0
DWIDTH 9 0
BBX 8 1 0 -2
BITMAP
FF
ENDCHAR

STARTCHAR char96
ENCODING 96
SWIDTH 0 0
DWIDTH 0 0
BBX 3 2 -2 8
BITMAP
C0
40
ENDCHAR

STARTCHAR char97
ENCODING 97
SWIDTH 36 0
DWIDTH 6 0
BBX 6 8 0 0
BITMAP
70
C8
18
18
68
D8
D8
6C
ENDCHAR

STARTCHAR char98
ENCODING 98
SWIDTH 43 0
DWIDTH 7 0
BBX 6 10 0 0
BITMAP
C0
C0
F8
CC
CC
CC
CC
CC
CC
F8
ENDCHAR

STARTCHAR char99
ENCODING 99
SWIDTH 36 0
DWIDTH 6 0
BBX 5 8 0 0
BITMAP
70
48
C8
C0
C0
C8
C8
70
ENDCHAR

STARTCHAR char100
ENCODING 100
SWIDTH 43 0
DWIDTH 7 0
BBX 6 10 0 0
BITMAP
0C
0C
7C
4C
CC
CC
CC
CC
CC
7C
ENDCHAR

STARTCHAR char101
ENCODING 101
SWIDTH 36 0
DWIDTH 6 0
BBX 5 8 0 0
BITMAP
70
48
88
F8
C0
C8
C8
70
ENDCHAR

STARTCHAR char102
ENCODING 102
SWIDTH 18 0
DWIDTH 3 0
BBX 3 10 0 0
BITMAP
60
60
E0
60
60
60
60
60
60
60
ENDCHAR

STARTCHAR char103
ENCODING 103
SWIDTH 43 0
DWIDTH 7 0
BBX 6 10 0 -2
BITMAP
74
4C
CC
CC
CC
CC
CC
7C
0C
7C
ENDCHAR

STARTCHAR char104
ENCODING 104
SWIDTH 43 0
DWIDTH 7 0
BBX 6 10 0 0
BITMAP
C0
80
B8
CC
CC
CC
CC
CC
CC
CC
ENDCHAR

STARTCHAR char105
ENCODING 105
SWIDTH 18 0
DWIDTH 3 0
BBX 2 10 0 0
BITMAP
C0
00
C0
C0
C0
C0
C0
C0
C0
C0
ENDCHAR

STARTCHAR char106
ENCODING 106
SWIDTH 18 0
DWIDTH 3 0
BBX 3 12 -1 -2
BITMAP
60
00
60
60
60
60
60
60
60
60
60
E0
ENDCHAR

STARTCHAR char107
ENCODING 107
SWIDTH 36 0
DWIDTH 6 0
BBX 6 10 0 0
BITMAP
C0
C0
C4
88
90
B0
F0
D8
C8
C4
ENDCHAR

STARTCHAR char108
ENCODING 108
SWIDTH 18 0
DWIDTH 3 0
BBX 2 10 0 0
BITMAP
C0
C0
C0
C0
C0
C0
C0
C0
C0
C0
ENDCHAR

STARTCHAR char109
ENCODING 109
SWIDTH 61 0
DWIDTH 10 0
BBX 9 8 0 0
BITMAP
FB00
CD80
CD80
CD80
CD80
CD80
CD80
CD80
ENDCHAR

STARTCHAR char110
ENCODING 110
SWIDTH 43 0
DWIDTH 7 0
BBX 6 8 0 0
BITMAP
F8
CC
CC
CC
CC
CC
CC
CC
ENDCHAR

STARTCHAR char111
ENCODING 111
SWIDTH 36 0
DWIDTH 6 0
BBX 6 8 0 0
BITMAP
70
48
CC
CC
CC
CC
CC
78
ENDCHAR

STARTCHAR char112
ENCODING 112
SWIDTH 43 0
DWIDTH 7 0
BBX 6 10 0 -2
BITMAP
F8
CC
CC
CC
CC
CC
CC
F8
C0
C0
ENDCHAR

STARTCHAR char113
ENCODING 113
SWIDTH 43 0
DWIDTH 7 0
BBX 6 10 0 -2
BITMAP
7C
4C
CC
CC
CC
CC
CC
7C
0C
0C
ENDCHAR

STARTCHAR char114
ENCODING 114
SWIDTH 24 0
DWIDTH 4 0
BBX 4 8 0 0
BITMAP
F0
E0
C0
C0
C0
C0
C0
C0
ENDCHAR

STARTCHAR char115
ENCODING 115
SWIDTH 36 0
DWIDTH 6 0
BBX 5 8 0 0
BITMAP
70
D8
80
60
38
18
D8
70
ENDCHAR

STARTCHAR char116
ENCODING 116
SWIDTH 18 0
DWIDTH 3 0
BBX 3 10 0 0
BITMAP
C0
C0
E0
C0
C0
C0
C0
C0
C0
60
ENDCHAR

STARTCHAR char117
ENCODING 117
SWIDTH 43 0
DWIDTH 7 0
BBX 6 8 0 0
BITMAP
CC
CC
CC
CC
CC
CC
CC
7C
ENDCHAR

STARTCHAR char118
ENCODING 118
SWIDTH 36 0
DWIDTH 6 0
BBX 6 8 0 0
BITMAP
88
88
48
48
50
50
30
20
ENDCHAR

STARTCHAR char119
ENCODING 119
SWIDTH 55 0
DWIDTH 9 0
BBX 8 8 0 0
BITMAP
D9
99
99
D9
6A
66
66
64
ENDCHAR

STARTCHAR char120
ENCODING 120
SWIDTH 36 0
DWIDTH 6 0
BBX 6 8 0 0
BITMAP
88
48
50
30
30
50
C8
8C
ENDCHAR

STARTCHAR char121
ENCODING 121
SWIDTH 36 0
DWIDTH 6 0
BBX 6 10 0 -2
BITMAP
8C
8C
48
48
58
50
30
30
20
E0
ENDCHAR

STARTCHAR char122
ENCODING 122
SWIDTH 30 0
DWIDTH 5 0
BBX 5 8 0 0
BITMAP
F8
18
10
30
20
40
C0
F8
ENDCHAR

STARTCHAR char123
ENCODING 123
SWIDTH 30 0
DWIDTH 5 0
BBX 3 13 1 -3
BITMAP
E0
C0
40
40
40
80
80
C0
C0
C0
C0
C0
60
ENDCHAR

STARTCHAR char124
ENCODING 124
SWIDTH 24 0
DWIDTH 4 0
BBX 2 11 1 0
BITMAP
C0
C0
C0
C0
C0
C0
C0
C0
C0
C0
C0
ENDCHAR

STARTCHAR char125
ENCODING 125
SWIDTH 30 0
DWIDTH 5 0
BBX 3 13 1 -3
BITMAP
C0
C0
C0
C0
C0
60
60
C0
40
40
C0
C0
80
ENDCHAR

STARTCHAR char126
ENCODING 126
SWIDTH 0 0
DWIDTH 0 0
BBX 4 2 -2 11
BITMAP
F0
B0
ENDCHAR

STARTCHAR char128
ENCODING 128
SWIDTH 49 0
DWIDTH 8 0
BBX 8 10 -1 0
BITMAP
1E
23
61
FC
60
FC
61
61
32
1E
ENDCHAR

STARTCHAR char130
ENCODING 130
SWIDTH 12 0
DWIDTH 2 0
BBX 2 3 0 -2
BITMAP
C0
40
40
ENDCHAR

STARTCHAR char131
ENCODING 131
SWIDTH 0 0
DWIDTH 0 0
BBX 4 2 -2 11
BITMAP
60
90
ENDCHAR

STARTCHAR char132
ENCODING 132
SWIDTH 30 0
DWIDTH 5 0
BBX 4 3 1 -2
BITMAP
F0
F0
A0
ENDCHAR

STARTCHAR char133
ENCODING 133
SWIDTH 36 0
DWIDTH 16 0
BBX 12 1 1 0
BITMAP
C630
ENDCHAR

STARTCHAR char134
ENCODING 134
SWIDTH 43 0
DWIDTH 7 0
BBX 6 12 0 -2
BITMAP
30
30
30
FC
30
30
30
30
30
30
30
30
ENDCHAR

STARTCHAR char135
ENCODING 135
SWIDTH 29 0
DWIDTH 15 0
BBX 0 0 0 0
BITMAP
ENDCHAR

STARTCHAR char136
ENCODING 136
SWIDTH 0 0
DWIDTH 0 0
BBX 4 2 -2 8
BITMAP
60
90
ENDCHAR

STARTCHAR char137
ENCODING 137
SWIDTH 29 0
DWIDTH 15 0
BBX 0 0 0 0
BITMAP
ENDCHAR

STARTCHAR char139
ENCODING 139
SWIDTH 30 0
DWIDTH 5 0
BBX 3 4 1 2
BITMAP
60
C0
C0
60
ENDCHAR

STARTCHAR char140
ENCODING 140
SWIDTH 5 0
DWIDTH 11 0
BBX 10 10 0 0
BITMAP
7FC0
C400
C400
C400
C7C0
C600
C600
C600
4E00
77C0
ENDCHAR

STARTCHAR char142
ENCODING 142
SWIDTH 29 0
DWIDTH 15 0
BBX 0 0 0 0
BITMAP
ENDCHAR

STARTCHAR char144
ENCODING 144
SWIDTH 29 0
DWIDTH 15 0
BBX 0 0 0 0
BITMAP
ENDCHAR

STARTCHAR char145
ENCODING 145
SWIDTH 18 0
DWIDTH 3 0
BBX 2 3 0 7
BITMAP
C0
80
C0
ENDCHAR

STARTCHAR char146
ENCODING 146
SWIDTH 18 0
DWIDTH 3 0
BBX 2 3 0 7
BITMAP
C0
40
80
ENDCHAR

STARTCHAR char147
ENCODING 147
SWIDTH 30 0
DWIDTH 5 0
BBX 5 3 0 7
BITMAP
48
90
D8
ENDCHAR

STARTCHAR char148
ENCODING 148
SWIDTH 30 0
DWIDTH 5 0
BBX 5 3 0 7
BITMAP
D8
48
D8
ENDCHAR

STARTCHAR char149
ENCODING 149
SWIDTH 30 0
DWIDTH 5 0
BBX 4 4 0 3
BITMAP
60
F0
F0
60
ENDCHAR

STARTCHAR char150
ENCODING 150
SWIDTH 43 0
DWIDTH 7 0
BBX 6 1 0 4
BITMAP
FC
ENDCHAR

STARTCHAR char151
ENCODING 151
SWIDTH 43 0
DWIDTH 7 0
BBX 7 1 0 4
BITMAP
FE
ENDCHAR

STARTCHAR char152
ENCODING 152
SWIDTH 0 0
DWIDTH 0 0
BBX 4 1 -2 9
BITMAP
F0
ENDCHAR

STARTCHAR char153
ENCODING 153
SWIDTH 11 0
DWIDTH 12 0
BBX 11 5 0 4
BITMAP
FA60
6360
6360
63E0
66E0
ENDCHAR

STARTCHAR char154
ENCODING 154
SWIDTH 29 0
DWIDTH 15 0
BBX 0 0 0 0
BITMAP
ENDCHAR

STARTCHAR char155
ENCODING 155
SWIDTH 30 0
DWIDTH 5 0
BBX 3 4 1 2
BITMAP
C0
60
60
80
ENDCHAR

STARTCHAR char156
ENCODING 156
SWIDTH 61 0
DWIDTH 10 0
BBX 9 8 0 0
BITMAP
6700
DD00
C980
DF80
D800
D800
D900
7700
ENDCHAR

STARTCHAR char159
ENCODING 159
SWIDTH 43 0
DWIDTH 7 0
BBX 7 13 0 0
BITMAP
68
00
00
84
CC
48
58
38
30
30
30
30
10
ENDCHAR

STARTCHAR char160
ENCODING 160
SWIDTH 24 0
DWIDTH 4 0
BBX 0 0 0 0
BITMAP
ENDCHAR

STARTCHAR char161
ENCODING 161
SWIDTH 18 0
DWIDTH 3 0
BBX 2 10 0 0
BITMAP
40
00
C0
C0
C0
C0
C0
C0
40
40
ENDCHAR

STARTCHAR char162
ENCODING 162
SWIDTH 36 0
DWIDTH 6 0
BBX 6 11 0 -2
BITMAP
30
78
FC
FC
F0
E0
E4
EC
78
30
30
ENDCHAR

STARTCHAR char163
ENCODING 163
SWIDTH 43 0
DWIDTH 7 0
BBX 7 10 0 0
BITMAP
78
C4
C4
80
F8
20
60
60
40
FC
ENDCHAR

STARTCHAR char164
ENCODING 164
SWIDTH 0 0
DWIDTH 0 0
BBX 4 2 -1 11
BITMAP
60
80
ENDCHAR

STARTCHAR char165
ENCODING 165
SWIDTH 0 0
DWIDTH 0 0
BBX 4 2 -2 11
BITMAP
90
60
ENDCHAR

STARTCHAR char166
ENCODING 166
SWIDTH 29 0
DWIDTH 15 0
BBX 0 0 0 0
BITMAP
ENDCHAR

STARTCHAR char167
ENCODING 167
SWIDTH 43 0
DWIDTH 7 0
BBX 6 12 0 -2
BITMAP
78
CC
40
70
DC
CC
C4
7C
18
0C
CC
78
ENDCHAR

STARTCHAR char168
ENCODING 168
SWIDTH 0 0
DWIDTH 0 0
BBX 4 1 -2 9
BITMAP
F0
ENDCHAR

STARTCHAR char169
ENCODING 169
SWIDTH 5 0
DWIDTH 11 0
BBX 12 10 -1 0
BITMAP
0F00
1080
2740
4920
D930
D830
D830
4F20
30C0
0F00
ENDCHAR

STARTCHAR char170
ENCODING 170
SWIDTH 0 0
DWIDTH 0 0
BBX 4 1 -2 12
BITMAP
F0
ENDCHAR

STARTCHAR char171
ENCODING 171
SWIDTH 36 0
DWIDTH 6 0
BBX 5 6 0 1
BITMAP
48
48
90
90
48
48
ENDCHAR

STARTCHAR char172
ENCODING 172
SWIDTH 61 0
DWIDTH 10 0
BBX 10 4 0 0
BITMAP
FFC0
00C0
00C0
00C0
ENDCHAR

STARTCHAR char173
ENCODING 173
SWIDTH 29 0
DWIDTH 15 0
BBX 0 0 0 0
BITMAP
ENDCHAR

STARTCHAR char174
ENCODING 174
SWIDTH 5 0
DWIDTH 11 0
BBX 12 10 -1 0
BITMAP
0F00
1080
2F40
4DA0
CDB0
CE30
CF30
4DA0
2040
1F80
ENDCHAR

STARTCHAR char175
ENCODING 175
SWIDTH 29 0
DWIDTH 15 0
BBX 0 0 0 0
BITMAP
ENDCHAR

STARTCHAR char176
ENCODING 176
SWIDTH 24 0
DWIDTH 4 0
BBX 6 5 -1 5
BITMAP
30
48
CC
48
30
ENDCHAR

STARTCHAR char177
ENCODING 177
SWIDTH 49 0
DWIDTH 8 0
BBX 7 9 0 0
BITMAP
30
30
30
FE
30
30
30
00
FE
ENDCHAR

STARTCHAR char178
ENCODING 178
SWIDTH 29 0
DWIDTH 15 0
BBX 0 0 0 0
BITMAP
ENDCHAR

STARTCHAR char179
ENCODING 179
SWIDTH 29 0
DWIDTH 15 0
BBX 0 0 0 0
BITMAP
ENDCHAR

STARTCHAR char180
ENCODING 180
SWIDTH 0 0
DWIDTH 0 0
BBX 3 2 -1 8
BITMAP
60
80
ENDCHAR

STARTCHAR char181
ENCODING 181
SWIDTH 29 0
DWIDTH 15 0
BBX 0 0 0 0
BITMAP
ENDCHAR

STARTCHAR char182
ENCODING 182
SWIDTH 61 0
DWIDTH 10 0
BBX 7 12 1 -2
BITMAP
3E
76
F6
F6
76
36
36
36
36
36
36
36
ENDCHAR

STARTCHAR char183
ENCODING 183
SWIDTH 12 0
DWIDTH 2 0
BBX 2 1 0 4
BITMAP
C0
ENDCHAR

STARTCHAR char184
ENCODING 184
SWIDTH 0 0
DWIDTH 0 0
BBX 2 2 -1 -3
BITMAP
C0
80
ENDCHAR

STARTCHAR char186
ENCODING 186
SWIDTH 0 0
DWIDTH 0 0
BBX 4 2 -2 11
BITMAP
F0
B0
ENDCHAR

STARTCHAR char187
ENCODING 187
SWIDTH 36 0
DWIDTH 6 0
BBX 5 6 0 1
BITMAP
90
D0
48
48
90
90
ENDCHAR

STARTCHAR char188
ENCODING 188
SWIDTH 29 0
DWIDTH 15 0
BBX 0 0 0 0
BITMAP
ENDCHAR

STARTCHAR char191
ENCODING 191
SWIDTH 43 0
DWIDTH 7 0
BBX 5 10 0 0
BITMAP
20
00
30
30
20
40
C0
C8
C8
70
ENDCHAR

STARTCHAR char192
ENCODING 192
SWIDTH 49 0
DWIDTH 8 0
BBX 7 13 0 0
BITMAP
60
10
00
30
28
28
68
4C
44
FC
C4
86
82
ENDCHAR

STARTCHAR char193
ENCODING 193
SWIDTH 49 0
DWIDTH 8 0
BBX 7 13 0 0
BITMAP
18
10
00
30
28
28
68
4C
44
FC
C4
86
82
ENDCHAR

STARTCHAR char194
ENCODING 194
SWIDTH 49 0
DWIDTH 8 0
BBX 7 13 0 0
BITMAP
38
48
00
30
28
28
68
4C
44
FC
C4
82
82
ENDCHAR

STARTCHAR char195
ENCODING 195
SWIDTH 49 0
DWIDTH 8 0
BBX 7 13 0 0
BITMAP
7C
48
00
30
28
28
68
4C
44
FC
C4
82
82
ENDCHAR

STARTCHAR char196
ENCODING 196
SWIDTH 49 0
DWIDTH 8 0
BBX 7 13 0 0
BITMAP
6C
00
00
10
28
28
28
4C
44
7C
C2
82
82
ENDCHAR

STARTCHAR char197
ENCODING 197
SWIDTH 49 0
DWIDTH 8 0
BBX 7 13 0 0
BITMAP
38
38
00
10
30
30
38
28
48
7C
C4
82
82
ENDCHAR

STARTCHAR char198
ENCODING 198
SWIDTH 5 0
DWIDTH 11 0
BBX 11 10 -1 0
BITMAP
0FE0
0B00
1B00
1300
13E0
2300
3F00
6300
4300
43E0
ENDCHAR

STARTCHAR char199
ENCODING 199
SWIDTH 43 0
DWIDTH 7 0
BBX 7 13 0 -3
BITMAP
38
44
C4
C0
C0
C0
C6
C4
44
38
00
30
10
ENDCHAR

STARTCHAR char200
ENCODING 200
SWIDTH 43 0
DWIDTH 7 0
BBX 6 13 0 0
BITMAP
60
10
00
FC
C0
C0
C0
FC
C0
C0
C0
C0
FC
ENDCHAR

STARTCHAR char201
ENCODING 201
SWIDTH 43 0
DWIDTH 7 0
BBX 6 13 0 0
BITMAP
18
20
00
FC
C0
C0
C0
FC
C0
C0
C0
C0
FC
ENDCHAR

STARTCHAR char202
ENCODING 202
SWIDTH 43 0
DWIDTH 7 0
BBX 6 13 0 0
BITMAP
70
C8
00
FC
C0
C0
C0
FC
C0
C0
C0
C0
FC
ENDCHAR

STARTCHAR char203
ENCODING 203
SWIDTH 43 0
DWIDTH 7 0
BBX 6 13 0 0
BITMAP
58
00
00
FC
C0
C0
C0
FC
C0
C0
C0
C0
FC
ENDCHAR

STARTCHAR char204
ENCODING 204
SWIDTH 18 0
DWIDTH 3 0
BBX 4 13 -2 0
BITMAP
60
30
00
30
30
30
30
30
30
30
30
30
30
ENDCHAR

STARTCHAR char205
ENCODING 205
SWIDTH 18 0
DWIDTH 3 0
BBX 4 13 0 0
BITMAP
60
40
00
C0
C0
C0
C0
C0
C0
C0
C0
C0
C0
ENDCHAR

STARTCHAR char206
ENCODING 206
SWIDTH 18 0
DWIDTH 3 0
BBX 4 13 -1 0
BITMAP
60
90
00
60
60
60
60
60
60
60
60
60
60
ENDCHAR

STARTCHAR char207
ENCODING 207
SWIDTH 18 0
DWIDTH 3 0
BBX 4 13 -1 0
BITMAP
D0
00
00
60
60
60
60
60
60
60
60
60
60
ENDCHAR

STARTCHAR char208
ENCODING 208
SWIDTH 29 0
DWIDTH 15 0
BBX 0 0 0 0
BITMAP
ENDCHAR

STARTCHAR char209
ENCODING 209
SWIDTH 49 0
DWIDTH 8 0
BBX 7 13 0 0
BITMAP
74
48
00
C6
E6
E6
D6
D6
D6
CE
CE
CE
C6
ENDCHAR

STARTCHAR char210
ENCODING 210
SWIDTH 49 0
DWIDTH 8 0
BBX 7 13 0 0
BITMAP
60
10
00
7C
C6
C6
C6
C6
C6
C6
C6
44
7C
ENDCHAR

STARTCHAR char211
ENCODING 211
SWIDTH 49 0
DWIDTH 8 0
BBX 7 13 0 0
BITMAP
18
10
00
7C
C6
C6
C6
C6
C6
C6
C6
44
7C
ENDCHAR

STARTCHAR char212
ENCODING 212
SWIDTH 49 0
DWIDTH 8 0
BBX 7 13 0 0
BITMAP
38
48
00
7C
C6
C6
C6
C6
C6
C6
C6
44
7C
ENDCHAR

STARTCHAR char213
ENCODING 213
SWIDTH 49 0
DWIDTH 8 0
BBX 7 13 0 0
BITMAP
7C
48
00
7C
C6
C6
C6
C6
C6
C6
C6
44
7C
ENDCHAR

STARTCHAR char214
ENCODING 214
SWIDTH 49 0
DWIDTH 8 0
BBX 7 13 0 0
BITMAP
6C
00
00
7C
C6
C6
C6
C6
C6
C6
C6
44
78
ENDCHAR

STARTCHAR char215
ENCODING 215
SWIDTH 29 0
DWIDTH 15 0
BBX 0 0 0 0
BITMAP
ENDCHAR

STARTCHAR char216
ENCODING 216
SWIDTH 49 0
DWIDTH 8 0
BBX 7 11 0 0
BITMAP
02
7E
C6
CE
CE
D6
D6
E6
C6
44
B8
ENDCHAR

STARTCHAR char217
ENCODING 217
SWIDTH 43 0
DWIDTH 7 0
BBX 7 13 0 0
BITMAP
60
10
00
C6
C6
C6
C6
C6
C6
C6
C6
C6
7C
ENDCHAR

STARTCHAR char218
ENCODING 218
SWIDTH 43 0
DWIDTH 7 0
BBX 7 13 0 0
BITMAP
18
20
00
C6
C6
C6
C6
C6
C6
C6
C6
C6
7C
ENDCHAR

STARTCHAR char219
ENCODING 219
SWIDTH 43 0
DWIDTH 7 0
BBX 7 13 0 0
BITMAP
38
48
00
C6
C6
C6
C6
C6
C6
C6
C6
C6
7C
ENDCHAR

STARTCHAR char220
ENCODING 220
SWIDTH 43 0
DWIDTH 7 0
BBX 7 13 0 0
BITMAP
68
00
00
C4
C4
C4
C4
C4
C4
C4
C6
C6
7C
ENDCHAR

STARTCHAR char221
ENCODING 221
SWIDTH 29 0
DWIDTH 15 0
BBX 0 0 0 0
BITMAP
ENDCHAR

STARTCHAR char223
ENCODING 223
SWIDTH 43 0
DWIDTH 7 0
BBX 6 10 0 0
BITMAP
78
CC
CC
C8
D8
CC
CC
CC
CC
D8
ENDCHAR

STARTCHAR char224
ENCODING 224
SWIDTH 36 0
DWIDTH 6 0
BBX 6 10 0 0
BITMAP
60
20
70
C8
18
18
68
D8
D8
6C
ENDCHAR

STARTCHAR char225
ENCODING 225
SWIDTH 36 0
DWIDTH 6 0
BBX 6 10 0 0
BITMAP
10
20
70
C8
18
18
68
D8
D8
6C
ENDCHAR

STARTCHAR char226
ENCODING 226
SWIDTH 36 0
DWIDTH 6 0
BBX 6 10 0 0
BITMAP
30
58
70
C8
18
18
68
D8
D8
6C
ENDCHAR

STARTCHAR char227
ENCODING 227
SWIDTH 36 0
DWIDTH 6 0
BBX 6 10 0 0
BITMAP
78
00
70
C8
18
18
68
D8
D8
6C
ENDCHAR

STARTCHAR char228
ENCODING 228
SWIDTH 36 0
DWIDTH 6 0
BBX 6 10 0 0
BITMAP
58
00
78
D8
08
18
68
98
D8
7C
ENDCHAR

STARTCHAR char229
ENCODING 229
SWIDTH 36 0
DWIDTH 6 0
BBX 6 11 0 0
BITMAP
70
78
70
78
CC
0C
1C
64
CC
CC
74
ENDCHAR

STARTCHAR char230
ENCODING 230
SWIDTH 55 0
DWIDTH 9 0
BBX 8 8 0 0
BITMAP
6E
D9
19
3F
D8
D8
D9
76
ENDCHAR

STARTCHAR char231
ENCODING 231
SWIDTH 36 0
DWIDTH 6 0
BBX 5 11 0 -3
BITMAP
70
48
C8
C0
C0
C8
C8
70
00
60
20
ENDCHAR

STARTCHAR char232
ENCODING 232
SWIDTH 36 0
DWIDTH 6 0
BBX 5 10 0 0
BITMAP
60
20
70
48
88
F8
C0
C8
C8
70
ENDCHAR

STARTCHAR char233
ENCODING 233
SWIDTH 36 0
DWIDTH 6 0
BBX 5 10 0 0
BITMAP
18
20
70
48
88
F8
C0
C8
C8
70
ENDCHAR

STARTCHAR char234
ENCODING 234
SWIDTH 36 0
DWIDTH 6 0
BBX 5 10 0 0
BITMAP
70
D0
70
48
88
F8
C0
C8
C8
70
ENDCHAR

STARTCHAR char235
ENCODING 235
SWIDTH 36 0
DWIDTH 6 0
BBX 5 10 0 0
BITMAP
D8
00
70
48
88
F8
C0
C8
C8
70
ENDCHAR

STARTCHAR char236
ENCODING 236
SWIDTH 18 0
DWIDTH 3 0
BBX 3 10 -1 0
BITMAP
C0
60
60
60
60
60
60
60
60
60
ENDCHAR

STARTCHAR char237
ENCODING 237
SWIDTH 18 0
DWIDTH 3 0
BBX 2 10 1 0
BITMAP
40
C0
C0
C0
C0
C0
C0
C0
C0
C0
ENDCHAR

STARTCHAR char238
ENCODING 238
SWIDTH 18 0
DWIDTH 3 0
BBX 4 10 -1 0
BITMAP
60
90
60
60
60
60
60
60
60
60
ENDCHAR

STARTCHAR char239
ENCODING 239
SWIDTH 18 0
DWIDTH 3 0
BBX 4 10 -1 0
BITMAP
F0
00
60
60
60
60
60
60
60
60
ENDCHAR

STARTCHAR char241
ENCODING 241
SWIDTH 43 0
DWIDTH 7 0
BBX 6 10 0 0
BITMAP
78
00
F8
CC
CC
CC
CC
CC
CC
CC
ENDCHAR

STARTCHAR char242
ENCODING 242
SWIDTH 36 0
DWIDTH 6 0
BBX 6 10 0 0
BITMAP
60
20
70
48
CC
CC
CC
CC
CC
78
ENDCHAR

STARTCHAR char243
ENCODING 243
SWIDTH 36 0
DWIDTH 6 0
BBX 6 10 0 0
BITMAP
10
20
70
48
CC
CC
CC
CC
CC
78
ENDCHAR

STARTCHAR char244
ENCODING 244
SWIDTH 36 0
DWIDTH 6 0
BBX 6 10 0 0
BITMAP
70
50
70
48
CC
CC
CC
CC
CC
78
ENDCHAR

STARTCHAR char245
ENCODING 245
SWIDTH 36 0
DWIDTH 6 0
BBX 6 10 0 0
BITMAP
78
00
70
48
CC
CC
CC
CC
CC
78
ENDCHAR

STARTCHAR char246
ENCODING 246
SWIDTH 36 0
DWIDTH 6 0
BBX 6 10 0 0
BITMAP
48
00
30
48
CC
CC
CC
CC
CC
78
ENDCHAR

STARTCHAR char247
ENCODING 247
SWIDTH 49 0
DWIDTH 8 0
BBX 7 5 0 1
BITMAP
30
00
FE
00
30
ENDCHAR

STARTCHAR char248
ENCODING 248
SWIDTH 36 0
DWIDTH 6 0
BBX 6 9 0 -1
BITMAP
7C
C8
CC
DC
EC
EC
C8
F0
80
ENDCHAR

STARTCHAR char249
ENCODING 249
SWIDTH 43 0
DWIDTH 7 0
BBX 6 10 0 0
BITMAP
60
20
CC
CC
CC
CC
CC
CC
CC
7C
ENDCHAR

STARTCHAR char250
ENCODING 250
SWIDTH 43 0
DWIDTH 7 0
BBX 6 10 0 0
BITMAP
1C
20
CC
CC
CC
CC
CC
CC
CC
7C
ENDCHAR

STARTCHAR char251
ENCODING 251
SWIDTH 43 0
DWIDTH 7 0
BBX 6 10 0 0
BITMAP
30
C8
CC
CC
CC
CC
CC
CC
CC
7C
ENDCHAR

STARTCHAR char252
ENCODING 252
SWIDTH 43 0
DWIDTH 7 0
BBX 5 10 0 0
BITMAP
58
00
C8
C8
C8
C8
C8
C8
D8
78
ENDCHAR

STARTCHAR char255
ENCODING 255
SWIDTH 36 0
DWIDTH 6 0
BBX 6 12 0 -2
BITMAP
D8
00
84
88
C8
58
58
50
30
30
20
C0
ENDCHAR
ENDFONT
